<?xml version="1.0" encoding="UTF-8" standalone="no"?>
<!-- Generator: Adobe Illustrator 19.0.0, SVG Export Plug-In . SVG Version: 6.00 Build 0)  -->

<svg
   version="1.1"
   id="レイヤー_1"
   x="0px"
   y="0px"
   viewBox="0 0 300.102 85.167"
   style="enable-background:new 0 0 300.102 85.167;"
   xml:space="preserve"
   xmlns="http://www.w3.org/2000/svg"
   xmlns:svg="http://www.w3.org/2000/svg"><defs
   id="defs190" />
<g
   id="g185">
	<g
   id="g183">
		<path
   style="fill:#B9658D;"
   d="M210.737,19.986l-1.103,1.348v42.52l1.104,1.348l35.499,7.146L247.884,71V14.167l-1.647-1.348    L210.737,19.986z M245.134,15.847v53.474l-32.749-6.593V22.459L245.134,15.847z"
   id="path145" />
		
		<path
   style="fill:#6E60A7;"
   d="M1.375,19.959L0,21.334v42.52l1.375,1.375h42.52l1.375-1.375v-42.52l-1.375-1.375H1.375z     M42.52,22.709v39.77H2.75v-39.77H42.52z"
   id="path153" />
		<path
   style="fill:#DB5E6F;"
   d="M101.209,5.937l-1.99,1.23V78l1.99,1.23l28.312-14.146l0.76-1.23v-42.52l-0.76-1.23L101.209,5.937z     M127.53,63.004l-25.562,12.772V9.392l25.562,12.791V63.004z"
   id="path155" />
		<path
   style="fill:#6E60A7;"
   d="M298.727,19.959h-42.52l-1.375,1.375v42.52l1.375,1.375h42.52l1.375-1.375v-42.52L298.727,19.959z     M297.352,22.709v39.77h-39.77v-39.77H297.352z"
   id="path157" />
		<path
   style="fill:#DB5E6F;"
   d="M170.581,20.104l-0.76,1.23v42.52l0.76,1.23l28.312,14.146l1.99-1.23V7.167l-1.99-1.23    L170.581,20.104z M198.134,9.392v66.384l-25.562-12.772v-40.82L198.134,9.392z"
   id="path159" />
		<rect
   x="148.697"
   style="fill:#E95541;"
   width="2.75"
   height="85.167"
   id="rect161" />
		<polygon
   style="fill:#B9658D;"
   points="87.718,41.109 87.718,62.737 54.968,69.33 54.968,15.857 87.718,22.469 87.718,28.082     90.468,28.082 90.468,21.344 89.365,19.996 53.865,12.828 52.218,14.176 52.218,71.01 53.865,72.358 89.364,65.211 90.468,63.863     90.468,33.338   "
   id="polygon163" />
		<g
   id="g181">
			<path
   style="fill:#0D131A;"
   d="M148.697,32.479v-4.772H143.5l-10.211,28.853h6.194l3.949-11.175h5.264v-4.634     c-1.052,0.007-2.577-0.022-3.639-0.022l2.844-8.226L148.697,32.479z"
   id="path165" />
			<path
   style="fill:#0D131A;"
   d="M153.704,27.707h-2.247v4.779c2.581,0.001,5.708,0.149,4.303,4.093     c-0.801,2.249-2.813,3.431-4.303,3.738v4.766c4.919-1.029,9.351-4.137,10.896-8.504     C164.942,29.266,160.084,27.747,153.704,27.707z"
   id="path167" />
			<path
   style="fill:#0D131A;"
   d="M7.161,56.925l20.641-28.853h7.353l-0.022,28.853h-6.109l0.078-6.114H17.398l-4.322,6.114H7.161z      M29.134,46.015l0.231-12.309h-0.08l-8.592,12.309H29.134z"
   id="path169" />
			<path
   style="fill:#0D131A;"
   d="M111.57,56.925h-6.194l10.211-28.853h6.194L111.57,56.925z"
   id="path171" />
			<path
   style="fill:#0D131A;"
   d="M173.563,56.925l10.211-28.853h6.194l-8.514,24.058h13.642l-1.697,4.795H173.563z"
   id="path173" />
			<path
   style="fill:#0D131A;"
   d="M223.665,28.072h19.342l-1.697,4.796h-13.148l-2.39,6.754h12.309l-1.697,4.795h-12.309     l-2.73,7.713h13.587l-1.697,4.795h-19.782L223.665,28.072z"
   id="path175" />
			<path
   style="fill:#0D131A;"
   d="M265.341,56.925h-6.634l15.44-14.946l-4.55-13.907h7.633l2.37,9.791l9.699-9.791h6.634     l-14.419,13.867l4.767,14.986h-7.593l-2.587-10.87L265.341,56.925z"
   id="path177" />
			<path
   style="fill:#0D131A;"
   d="M73.325,56.925l-2.904-23.978l-0.108,0.08l-8.457,23.898h-5.795l10.211-28.853h9.192l2.957,22.699     l0.108-0.08l8.005-22.619h5.795L82.117,56.925H73.325z"
   id="path179" />
		</g>
	</g>
</g>
</svg>
